# xmcd
#
# Track frame offsets: 
#        150
#        15117
#        30858
#        45025
#        67429
#        79279
#        95319
#        107994
#        130466
#        147220
#        161331
#
# Disc length: 2383 seconds
#
# Revision: 0
# Processed by: cddbd v1.5.2PL0 Copyright (c) Steve Scherf et al.
# Submitted via: ExactAudioCopy v1.3
#
DISCID=82094d0b
DTITLE=Celso Salim and Rodrigo Mantovani - Diggin' The Blues
DYEAR=2011
DGENRE=Delta Blues, Country Blues
TTITLE0=East St. Louis Blues
TTITLE1=Three Hundred Pounds of Joy
TTITLE2=By Myself
TTITLE3=Money Tree Blues
TTITLE4=Truckin' My Blues Away
TTITLE5=Weeping Willow Blues
TTITLE6=Sixteen Tons
TTITLE7=Travelin' Girl-
TTITLE8=No Man Can Trust
TTITLE9=You're Gonna Miss Me
TTITLE10=Weak Brain and Narrow Mind
EXTD=
EXTT0=
EXTT1=
EXTT2=
EXTT3=
EXTT4=
EXTT5=
EXTT6=
EXTT7=
EXTT8=
EXTT9=
EXTT10=
PLAYORDER=
